<mxfile host="app.diagrams.net" modified="2024-04-03T04:27:02.808Z" agent="Mozilla/5.0 (Windows NT 10.0; Win64; x64) AppleWebKit/537.36 (KHTML, like Gecko) Chrome/123.0.0.0 Safari/537.36" etag="1zR-BPqc2Y95tV0KvYdF" version="24.2.1" type="device">
  <diagram name="Page-1" id="62HLBtzrZZ-sCKUm8HcJ">
    <mxGraphModel dx="875" dy="464" grid="1" gridSize="10" guides="1" tooltips="1" connect="1" arrows="1" fold="1" page="1" pageScale="1" pageWidth="850" pageHeight="1100" math="0" shadow="0">
      <root>
        <mxCell id="0" />
        <mxCell id="1" parent="0" />
        <mxCell id="1u1Xhy6t5oVTluZs5HvB-15" style="edgeStyle=orthogonalEdgeStyle;rounded=0;orthogonalLoop=1;jettySize=auto;html=1;entryX=0.5;entryY=0;entryDx=0;entryDy=0;" edge="1" parent="1" source="1u1Xhy6t5oVTluZs5HvB-1" target="1u1Xhy6t5oVTluZs5HvB-14">
          <mxGeometry relative="1" as="geometry" />
        </mxCell>
        <mxCell id="1u1Xhy6t5oVTluZs5HvB-1" value="Character Comes In" style="rounded=0;whiteSpace=wrap;html=1;" vertex="1" parent="1">
          <mxGeometry x="340" y="50" width="120" height="60" as="geometry" />
        </mxCell>
        <mxCell id="1u1Xhy6t5oVTluZs5HvB-18" style="edgeStyle=orthogonalEdgeStyle;rounded=0;orthogonalLoop=1;jettySize=auto;html=1;entryX=0.5;entryY=0;entryDx=0;entryDy=0;" edge="1" parent="1" source="1u1Xhy6t5oVTluZs5HvB-14" target="1u1Xhy6t5oVTluZs5HvB-17">
          <mxGeometry relative="1" as="geometry" />
        </mxCell>
        <mxCell id="1u1Xhy6t5oVTluZs5HvB-14" value="Game Starts" style="rounded=0;whiteSpace=wrap;html=1;" vertex="1" parent="1">
          <mxGeometry x="340" y="148" width="120" height="60" as="geometry" />
        </mxCell>
        <mxCell id="1u1Xhy6t5oVTluZs5HvB-16" value="Delay 3-5 seconds" style="text;html=1;align=center;verticalAlign=middle;resizable=0;points=[];autosize=1;strokeColor=none;fillColor=none;" vertex="1" parent="1">
          <mxGeometry x="410" y="118" width="120" height="30" as="geometry" />
        </mxCell>
        <mxCell id="1u1Xhy6t5oVTluZs5HvB-20" style="edgeStyle=orthogonalEdgeStyle;rounded=0;orthogonalLoop=1;jettySize=auto;html=1;entryX=0.5;entryY=0;entryDx=0;entryDy=0;" edge="1" parent="1" source="1u1Xhy6t5oVTluZs5HvB-17">
          <mxGeometry relative="1" as="geometry">
            <mxPoint x="400" y="350" as="targetPoint" />
          </mxGeometry>
        </mxCell>
        <mxCell id="1u1Xhy6t5oVTluZs5HvB-17" value="Summon Enemies" style="rounded=0;whiteSpace=wrap;html=1;" vertex="1" parent="1">
          <mxGeometry x="340" y="250" width="120" height="60" as="geometry" />
        </mxCell>
        <mxCell id="1u1Xhy6t5oVTluZs5HvB-23" style="edgeStyle=orthogonalEdgeStyle;rounded=0;orthogonalLoop=1;jettySize=auto;html=1;entryX=0;entryY=0.5;entryDx=0;entryDy=0;" edge="1" parent="1" source="1u1Xhy6t5oVTluZs5HvB-21" target="1u1Xhy6t5oVTluZs5HvB-22">
          <mxGeometry relative="1" as="geometry" />
        </mxCell>
        <mxCell id="1u1Xhy6t5oVTluZs5HvB-25" style="edgeStyle=orthogonalEdgeStyle;rounded=0;orthogonalLoop=1;jettySize=auto;html=1;entryX=1;entryY=0.5;entryDx=0;entryDy=0;" edge="1" parent="1" source="1u1Xhy6t5oVTluZs5HvB-21" target="1u1Xhy6t5oVTluZs5HvB-24">
          <mxGeometry relative="1" as="geometry" />
        </mxCell>
        <mxCell id="1u1Xhy6t5oVTluZs5HvB-21" value="GamePlay" style="rhombus;whiteSpace=wrap;html=1;" vertex="1" parent="1">
          <mxGeometry x="340" y="350" width="120" height="120" as="geometry" />
        </mxCell>
        <mxCell id="1u1Xhy6t5oVTluZs5HvB-31" style="edgeStyle=orthogonalEdgeStyle;rounded=0;orthogonalLoop=1;jettySize=auto;html=1;entryX=0.5;entryY=0;entryDx=0;entryDy=0;" edge="1" parent="1" source="1u1Xhy6t5oVTluZs5HvB-22" target="1u1Xhy6t5oVTluZs5HvB-29">
          <mxGeometry relative="1" as="geometry" />
        </mxCell>
        <mxCell id="1u1Xhy6t5oVTluZs5HvB-22" value="HP = 0" style="rounded=0;whiteSpace=wrap;html=1;" vertex="1" parent="1">
          <mxGeometry x="520" y="380" width="120" height="60" as="geometry" />
        </mxCell>
        <mxCell id="1u1Xhy6t5oVTluZs5HvB-30" style="edgeStyle=orthogonalEdgeStyle;rounded=0;orthogonalLoop=1;jettySize=auto;html=1;entryX=0.5;entryY=0;entryDx=0;entryDy=0;" edge="1" parent="1" source="1u1Xhy6t5oVTluZs5HvB-24" target="1u1Xhy6t5oVTluZs5HvB-28">
          <mxGeometry relative="1" as="geometry" />
        </mxCell>
        <mxCell id="1u1Xhy6t5oVTluZs5HvB-24" value="Times Up" style="rounded=0;whiteSpace=wrap;html=1;" vertex="1" parent="1">
          <mxGeometry x="160" y="380" width="120" height="60" as="geometry" />
        </mxCell>
        <mxCell id="1u1Xhy6t5oVTluZs5HvB-26" value="Win Condition" style="text;html=1;align=center;verticalAlign=middle;resizable=0;points=[];autosize=1;strokeColor=none;fillColor=none;" vertex="1" parent="1">
          <mxGeometry x="170" y="340" width="100" height="30" as="geometry" />
        </mxCell>
        <mxCell id="1u1Xhy6t5oVTluZs5HvB-27" value="Lose Condition" style="text;html=1;align=center;verticalAlign=middle;resizable=0;points=[];autosize=1;strokeColor=none;fillColor=none;" vertex="1" parent="1">
          <mxGeometry x="530" y="340" width="100" height="30" as="geometry" />
        </mxCell>
        <mxCell id="1u1Xhy6t5oVTluZs5HvB-28" value="Win Screen" style="rounded=0;whiteSpace=wrap;html=1;" vertex="1" parent="1">
          <mxGeometry x="160" y="480" width="120" height="60" as="geometry" />
        </mxCell>
        <mxCell id="1u1Xhy6t5oVTluZs5HvB-36" style="edgeStyle=orthogonalEdgeStyle;rounded=0;orthogonalLoop=1;jettySize=auto;html=1;entryX=1;entryY=0.5;entryDx=0;entryDy=0;" edge="1" parent="1" source="1u1Xhy6t5oVTluZs5HvB-29" target="1u1Xhy6t5oVTluZs5HvB-32">
          <mxGeometry relative="1" as="geometry">
            <Array as="points">
              <mxPoint x="580" y="610" />
            </Array>
          </mxGeometry>
        </mxCell>
        <mxCell id="1u1Xhy6t5oVTluZs5HvB-29" value="Lose Screen" style="rounded=0;whiteSpace=wrap;html=1;" vertex="1" parent="1">
          <mxGeometry x="520" y="480" width="120" height="60" as="geometry" />
        </mxCell>
        <mxCell id="1u1Xhy6t5oVTluZs5HvB-32" value="Thank You Screen" style="rounded=0;whiteSpace=wrap;html=1;" vertex="1" parent="1">
          <mxGeometry x="340" y="580" width="120" height="60" as="geometry" />
        </mxCell>
        <mxCell id="1u1Xhy6t5oVTluZs5HvB-34" style="edgeStyle=orthogonalEdgeStyle;rounded=0;orthogonalLoop=1;jettySize=auto;html=1;entryX=0;entryY=0.5;entryDx=0;entryDy=0;" edge="1" parent="1" source="1u1Xhy6t5oVTluZs5HvB-28" target="1u1Xhy6t5oVTluZs5HvB-32">
          <mxGeometry relative="1" as="geometry">
            <Array as="points">
              <mxPoint x="220" y="610" />
            </Array>
          </mxGeometry>
        </mxCell>
      </root>
    </mxGraphModel>
  </diagram>
</mxfile>
